<svg xmlns="http://www.w3.org/2000/svg"><symbol id="ico9" viewBox="0 0 55 55"><path d="M2.33,25.504c6.548,11.224,15.941,20.617,27.166,27.165C32.109,54.194,35.09,55,38.116,55c4.568,0,8.866-1.778,12.098-5.011  C53.3,46.902,55,42.797,55,38.433V37.5c0-1.042-0.646-1.975-1.622-2.342l-13.333-5c-0.919-0.344-1.954-0.121-2.646,0.574  l-3.524,3.524c-5.078-3.647-9.483-8.054-13.131-13.131l3.525-3.525c0.693-0.693,0.917-1.728,0.573-2.646l-5-13.333  C19.475,0.646,18.542,0,17.5,0h-0.932c-4.365,0-8.47,1.7-11.557,4.787C1.779,8.019,0,12.315,0,16.884  C0,19.91,0.806,22.891,2.33,25.504 M8.546,8.323c1.956-1.956,4.499-3.109,7.231-3.296l3.816,10.177l-3.861,3.862  c-0.843,0.842-0.974,2.163-0.313,3.154c4.608,6.912,10.448,12.752,17.36,17.359c0.991,0.662,2.313,0.531,3.153-0.312l3.862-3.861  l10.177,3.816c-0.187,2.73-1.34,5.274-3.295,7.229C44.391,48.74,41.35,50,38.116,50c-2.143,0-4.251-0.569-6.102-1.648  C21.534,42.237,12.763,33.466,6.649,22.985C5.57,21.136,5,19.026,5,16.884C5,13.651,6.259,10.61,8.546,8.323"></path></symbol></svg>