<?xml version="1.0" encoding="utf-8"?>
<!-- Generator: Adobe Illustrator 16.0.2, SVG Export Plug-In . SVG Version: 6.00 Build 0)  -->
<!DOCTYPE svg PUBLIC "-//W3C//DTD SVG 1.1//EN" "http://www.w3.org/Graphics/SVG/1.1/DTD/svg11.dtd">
<svg version="1.1" id="Слой_1" xmlns="http://www.w3.org/2000/svg" xmlns:xlink="http://www.w3.org/1999/xlink" x="0px" y="0px"
	 width="888.207px" height="238px" viewBox="0 0 888.207 238" enable-background="new 0 0 888.207 238" xml:space="preserve">
<path fill="#8DC649" d="M170.161,131.705c-5.73,24.035-27.322,41.918-53.111,41.918h-46.82c-2.155,0-3.902-1.747-3.902-3.901
	v-17.558H34.826c-1.987,0-3.612-1.626-3.612-3.612v-17.186c0-1.987,1.625-3.612,3.612-3.612h31.502v-17.508H34.826
	c-1.987,0-3.612-1.625-3.612-3.612V89.448c0-1.987,1.625-3.612,3.612-3.612h31.502V68.279c0-2.155,1.747-3.902,3.902-3.902h46.82
	c25.789,0,47.381,17.882,53.111,41.918h67.156C230.974,46.548,180.429,0,119,0H7.803C3.494,0,0,3.494,0,7.803v222.393
	C0,234.507,3.494,238,7.803,238H119c61.429,0,111.974-46.549,118.317-106.295H170.161z"/>
<path fill="#FFFFFF" d="M306.938,159.515V64.494c0-7.483,5.917-13.4,13.4-13.4h67.524c6.613,0,12.008,5.394,12.008,12.007
	c0,6.614-5.395,11.834-12.008,11.834h-54.298v24.713h46.467c6.612,0,12.007,5.394,12.007,12.008c0,6.613-5.395,11.834-12.007,11.834
	h-46.467v25.582h55.168c6.613,0,12.008,5.396,12.008,12.008c0,6.613-5.395,11.834-12.008,11.834h-68.394
	C312.855,172.914,306.938,166.997,306.938,159.515"/>
<path fill="#FFFFFF" d="M457.478,64.495c0-7.484,5.917-13.401,13.399-13.401h34.11c38.286,0,64.739,26.279,64.739,60.563v0.348
	c0,34.284-26.453,60.91-64.739,60.91h-34.11c-7.482,0-13.399-5.917-13.399-13.399V64.495z M504.987,148.725
	c21.928,0,36.72-14.793,36.72-36.372v-0.348c0-21.58-14.792-36.721-36.72-36.721h-20.71v73.441H504.987z"/>
<path fill="#FFFFFF" d="M587.307,91.816c0-7.309,5.917-13.226,13.226-13.226s13.226,5.917,13.226,13.226v4.177
	c3.829-9.05,10.095-17.403,17.927-17.403c8.178,0,12.878,5.395,12.878,12.878c0,6.961-4.526,11.138-9.92,12.356
	c-13.4,3.133-20.885,13.4-20.885,32.195v24.713c0,7.31-5.917,13.227-13.226,13.227s-13.226-5.917-13.226-13.227V91.816z"/>
<path fill="#FFFFFF" d="M656.224,57.358c0-7.657,6.44-12.356,14.793-12.356c8.354,0,14.793,4.699,14.793,12.356v0.348
	c0,7.658-6.438,12.53-14.793,12.53c-8.353,0-14.793-4.872-14.793-12.53V57.358z M657.791,91.816c0-7.309,5.917-13.226,13.226-13.226
	c7.31,0,13.227,5.917,13.227,13.226v68.916c0,7.31-5.917,13.227-13.227,13.227c-7.309,0-13.226-5.917-13.226-13.227V91.816z"/>
<path fill="#FFFFFF" d="M745.849,174.828h-1.392c-7.137,0-12.009-4.524-14.967-11.485l-28.541-65.957
	c-0.696-1.74-1.393-4.003-1.393-6.439c0-6.265,5.743-12.356,12.878-12.356s10.964,4.002,12.878,9.398l20.015,54.123l20.36-54.472
	c1.741-4.525,5.396-9.049,12.356-9.049c6.962,0,12.705,5.395,12.705,12.53c0,2.262-0.871,5.047-1.394,6.265l-28.541,65.957
	C757.856,170.13,752.983,174.828,745.849,174.828"/>
<path fill="#FFFFFF" d="M845.918,175.003c-28.02,0-48.729-19.666-48.729-48.206v-0.348c0-26.627,18.97-48.555,46.117-48.555
	c31.152,0,44.9,25.583,44.9,44.9c0,7.657-5.396,12.704-12.356,12.704h-52.383c2.611,12.008,10.964,18.273,22.798,18.273
	c7.311,0,13.4-2.263,18.795-6.266c1.914-1.392,3.655-2.088,6.439-2.088c5.917,0,10.269,4.524,10.269,10.441
	c0,3.48-1.566,6.092-3.481,7.832C870.107,170.652,859.493,175.003,845.918,175.003 M862.973,118.965
	c-1.566-11.834-8.528-19.839-19.666-19.839c-10.964,0-18.098,7.831-20.187,19.839H862.973z"/>
<path fill="#8DC649" d="M411.011,118.739c0-7.657,6.439-12.356,14.792-12.356c8.354,0,14.793,4.699,14.793,12.356v0.348
	c0,7.657-6.439,12.53-14.793,12.53c-8.353,0-14.792-4.873-14.792-12.53V118.739z"/>
<rect fill="none" width="888.207" height="238"/>
</svg>
