<svg xmlns="http://www.w3.org/2000/svg">	<symbol id="arrow-btn" viewBox="0 0 25 16"><polygon points="17.167,15.85 16.452,15.15 23.451,8 16.452,0.85 17.167,0.15 24.85,8"></polygon><path d="M0.15,8.5v-1h24v1H0.15z"></path></symbol>	<symbol id="arrow-down" viewBox="0 0 100 100"><polygon points="50,77.6 0,27.8 6,22 50,65.9 94,22 100,27.8"></polygon></symbol>	<symbol id="arrow-left" viewBox="0 0 100 100"><polygon points="71.7,0 77.6,6 33.7,50 77.6,94 71.7,100 22,50"></polygon></symbol>	<symbol id="arrow-right" viewBox="0 0 100 100"><polygon points="77.6,50 27.8,100 22,94 65.9,50 22,6 27.8,0"></polygon></symbol>	<symbol id="arrow-up" viewBox="0 0 100 100"><polygon points="100,71.7 94,77.6 50,33.7 6,77.6 0,71.7 50,22"></polygon></symbol>	<symbol id="facebook" viewBox="0 0 39.97700119018555 76.98100280761719"><path fill="#FFFFFF" d="M39.977,12.778l-7.246,0.003c-5.68,0-6.781,2.7-6.781,6.665v8.734H39.5l-0.004,13.687H25.949v35.114H11.816  V41.867H0V28.18h11.816V18.09C11.816,6.379,18.969,0,29.418,0l10.559,0.016V12.778z"></path><rect fill="none" width="39.977" height="76.981"></rect></symbol>	<symbol id="ico1" viewBox="0 0 54 54"><path d="M27.934,28.342c-0.157,0.117-0.416,0.162-0.59,0.193c-0.69,0.122-1.427-0.017-2.004-0.271  c-0.188-0.055-0.29-0.127-0.493-0.269l-0.609,1.087c0.898,0.553,1.822,0.746,2.787,0.665l0.137,0.777l0.69-0.122l-0.137-0.776  c0.69-0.122,1.249-0.488,1.619-0.909c0.371-0.421,0.539-0.984,0.433-1.589c-0.106-0.604-0.37-1.092-0.849-1.275  c-0.406-0.284-1.056-0.437-1.949-0.457l-0.721-0.051c-0.447-0.01-0.736-0.137-0.853-0.294c-0.203-0.143-0.234-0.315-0.264-0.488  c-0.046-0.259,0.01-0.447,0.152-0.65c0.071-0.101,0.229-0.218,0.473-0.35c0.172-0.03,0.258-0.046,0.431-0.076l0.173-0.031  c0.345-0.06,0.619-0.02,0.893,0.021c0.361,0.025,0.65,0.152,1.026,0.264l0.522-1.071c-0.767-0.31-1.518-0.534-2.294-0.397  l-0.091-0.517l-0.691,0.121l0.092,0.518c-0.691,0.122-1.163,0.472-1.534,0.894c-0.371,0.421-0.452,0.969-0.345,1.573  c0.106,0.605,0.355,1.006,0.761,1.29c0.406,0.285,1.041,0.351,1.863,0.473l0.721,0.051c0.447,0.01,0.737,0.137,0.94,0.279  c0.202,0.142,0.318,0.3,0.364,0.558c0.046,0.26-0.01,0.447-0.151,0.65C28.264,28.195,28.106,28.312,27.934,28.342"></path><path d="M27.938,33.414c3.971-0.7,6.672-4.558,5.973-8.529c-0.7-3.97-4.56-6.672-8.529-5.972c-3.971,0.7-6.672,4.558-5.972,8.529  C20.109,31.412,23.967,34.114,27.938,33.414 M25.67,20.553c3.021-0.533,5.966,1.529,6.498,4.55c0.533,3.021-1.529,5.966-4.55,6.499  c-3.021,0.532-5.965-1.529-6.499-4.551C20.587,24.03,22.649,21.086,25.67,20.553"></path><path d="M44.824,33.285c0.519-0.093,0.803-0.498,0.711-1.017l-3.257-18.471c-0.091-0.518-0.498-0.802-1.015-0.711L8.549,18.855  c-0.518,0.091-0.802,0.498-0.711,1.016l3.257,18.471c0.091,0.518,0.497,0.802,1.015,0.711L44.824,33.285z M10.707,26.04  c2.874-0.863,4.793-3.604,4.621-6.6l19.766-3.485c0.862,2.873,3.604,4.793,6.6,4.621l0.975,5.524  c-2.874,0.863-4.794,3.604-4.621,6.601L18.28,36.185c-0.863-2.874-3.605-4.793-6.615-4.707L10.707,26.04z M39.772,32.395  c-0.005-2.046,1.275-3.873,3.2-4.568l0.684,3.885L39.772,32.395z M41.39,18.85c-2.046,0.004-3.874-1.275-4.569-3.2l3.884-0.685  L41.39,18.85z M13.602,19.744c0.004,2.047-1.275,3.874-3.2,4.569l-0.685-3.884L13.602,19.744z M11.97,33.204  c2.046-0.005,3.889,1.36,4.584,3.286l-3.884,0.685L11.97,33.204z"></path><line fill="none" stroke="#fff" stroke-width="2" stroke-miterlimit="10" x1="9.015" y1="9.015" x2="44.985" y2="44.985"></line><circle fill="none" stroke="#fff" stroke-width="2" stroke-miterlimit="10" cx="27" cy="27" r="26"></circle></symbol>	<symbol id="ico10" viewBox="0 0 36 46"><path d="M36,17.63C35.885,7.797,27.834-0.088,18,0C8.167-0.088,0.115,7.797,0,17.63c-0.008,3.807,1.243,7.509,3.56,10.53l12.83,17  c0.064,0.079,0.134,0.151,0.21,0.22l0.11,0.101h0.07c0.134,0.091,0.278,0.163,0.43,0.22l0.15,0.05c0.197,0.12,0.414,0.205,0.64,0.25  c0.187-0.004,0.372-0.035,0.55-0.09l0.15-0.05c0.151-0.057,0.296-0.13,0.43-0.221h0.07l0.109-0.1c0.076-0.068,0.146-0.141,0.21-0.22  l12.83-17C34.732,25.268,36.019,21.502,36,17.63 M18,4c7.627-0.095,13.891,6.003,14,13.63c0.003,2.937-0.967,5.793-2.76,8.12  L18,40.68L6.77,25.76C4.972,23.432,3.997,20.572,4,17.63C4.11,10.003,10.373,3.905,18,4"></path><path d="M18,24.63c3.866,0,7-3.134,7-7s-3.134-7-7-7s-7,3.134-7,7S14.134,24.63,18,24.63 M18,14.63c1.657,0,3,1.343,3,3  s-1.343,3-3,3s-3-1.343-3-3S16.343,14.63,18,14.63"></path></symbol>	<symbol id="ico11" viewBox="0 0 68.5 69.4000015258789"><path d="M53.4,6.7h-1.7V3c0-1.7-1.3-3-3-3s-3,1.3-3,3v3.7h-23V3c0-1.7-1.3-3-3-3s-3,1.3-3,3v3.7H15c-8.3,0-15,6.7-15,15v32.7  c0,8.3,6.7,15,15,15h38.5c8.299,0,15-6.7,15-15V21.7C68.4,13.4,61.7,6.7,53.4,6.7 M15,12.7h1.7v3.7c0,1.7,1.3,3,3,3s3-1.3,3-3v-3.7  h23v3.7c0,1.7,1.3,3,3,3s3-1.3,3-3v-3.7h1.7c5,0,9,4,9,9v3H6v-3C6,16.8,10,12.7,15,12.7 M53.4,63.4H15c-5,0-9-4-9-9V30.7h56.5v23.7  C62.4,59.4,58.4,63.4,53.4,63.4"></path><path d="M51.101,47.7H17.3c-1.7,0-3,1.3-3,3s1.3,3,3,3h33.699c1.701,0,3-1.3,3-3S52.7,47.7,51.101,47.7"></path><path d="M23,43.4h22.5c1.7,0,3-1.3,3-3s-1.3-3-3-3H23c-1.7,0-3,1.3-3,3S21.3,43.4,23,43.4"></path></symbol>	<symbol id="ico12" viewBox="0 0 40 36"><path d="M36.3,12.1c-1,0.4-1.6,1.5-1.2,2.6c0.4,1.1,0.601,2.2,0.801,3.3H34c-1.1,0-2,0.9-2,2c0,1.101,0.9,2,2,2h4  c0.5,0,1-0.2,1.4-0.6C39.8,21,40,20.5,40,20c0-2.3-0.4-4.5-1.1-6.7C38.5,12.3,37.3,11.7,36.3,12.1"></path><path d="M2,22h4c1.1,0,2-0.9,2-2c0-1.1-0.9-2-2-2H4.1c0.4-2.9,1.5-5.6,3.2-7.8l1.2,1.2C9,11.8,9.5,12,10,12s1-0.2,1.4-0.6  c0.8-0.8,0.8-2,0-2.8l-1.2-1.2c2.2-1.7,4.9-2.9,7.8-3.2v2.1c0,1.1,0.9,2,2,2c1.1,0,2-0.9,2-2V4.2c1.2,0.1,2.3,0.4,3.4,0.8  c1,0.4,2.199-0.2,2.6-1.2s-0.2-2.2-1.2-2.6C24.6,0.4,22.3,0,20,0C14.5,0,9.6,2.2,6,5.7L5.9,5.8L5.8,5.9c-3.5,3.6-5.7,8.6-5.7,14  C0,21.1,0.9,22,2,22"></path><path d="M20,14c-3.3,0-6,2.7-6,6s2.7,6,6,6s6-2.7,6-6c0-0.9-0.2-1.8-0.6-2.6l12-12c0.8-0.8,0.8-2,0-2.8c-0.801-0.8-2-0.8-2.801,0  l-12,12C21.8,14.2,20.9,14,20,14 M20,22c-1.1,0-2-0.9-2-2c0-1.1,0.9-2,2-2c1.1,0,2,0.9,2,2C22,21.1,21.1,22,20,22"></path><path d="M38,32H2c-1.1,0-2,0.9-2,2s0.9,2,2,2h36c1.1,0,2-0.9,2-2S39.1,32,38,32"></path></symbol>	<symbol id="ico13" viewBox="0 0 100 100.0250015258789"><path d="M50,100.025c-27.57,0-50-22.18-50-49.44c-0.029-10.917,3.617-21.526,10.35-30.12c2.391-3.053,6.79-3.623,9.88-1.28  c3.049,2.304,3.653,6.644,1.349,9.693c-0.019,0.026-0.039,0.051-0.059,0.077c-4.833,6.169-7.45,13.784-7.43,21.62  c0,19.833,16.077,35.91,35.91,35.91s35.91-16.077,35.91-35.91c0.021-7.836-2.597-15.451-7.43-21.62  c-2.347-3.016-1.804-7.364,1.213-9.711c0.025-0.02,0.051-0.039,0.077-0.059c3.09-2.343,7.488-1.773,9.88,1.28  c6.732,8.594,10.378,19.203,10.35,30.12C100,77.845,77.57,100.025,50,100.025"></path><path d="M48.63,59.745c-3.866,0-7-3.134-7-7V7.025C41.63,3.145,44.776,0,48.655,0c3.88,0,7.024,3.145,7.024,7.025v45.75  c-0.017,3.866-3.162,6.987-7.029,6.97H48.63z"></path></symbol>	<symbol id="ico14" viewBox="0 0 79.43099975585938 79.43299865722656"><path d="M65.228,0H14.205C6.372,0,0,6.374,0,14.207v51.021c0,7.833,6.372,14.206,14.205,14.206h51.021  c7.833,0,14.205-6.373,14.205-14.206V14.207C79.433,6.374,73.061,0,65.228,0 M72.437,63.353c0,5.01-4.075,9.084-9.085,9.084H16.08  c-5.009,0-9.085-4.073-9.085-9.084V16.082c0-5.009,4.075-9.085,9.085-9.085h47.271c5.009,0,9.085,4.075,9.085,9.085V63.353z"></path><path d="M32.129,43.369l-8.719-8.715c-1.063-1.063-2.787-1.062-3.85,0.001l-2.521,2.521c-1.064,1.064-1.064,2.788,0,3.851  l14.828,14.824l0.262,0.262c1.064,1.063,2.787,1.063,3.85-0.001l26.413-26.416c1.063-1.063,1.063-2.787,0-3.851l-2.522-2.521  c-1.063-1.064-2.787-1.064-3.851,0L35.98,43.368C34.917,44.431,33.193,44.431,32.129,43.369"></path></symbol>	<symbol id="ico15" viewBox="0 0 86 62"><path d="M9,0C4.065,0,0,4.066,0,9v44c0,4.934,4.066,9,9,9h68c4.936,0,9.002-4.066,9.002-9V9c0-4.934-4.066-9-9.002-9H9z M9,6h68  c1.715,0,3.002,1.286,3.002,3v44c0,1.714-1.287,3-3.002,3H9c-1.713,0-3-1.286-3-3V9C6,7.286,7.287,6,9,6 M71.938,10.844  c-0.781,0.055-1.511,0.414-2.031,1L45.094,36.125c-1.166,1.141-3.089,1.139-4.25,0l-24.75-24.281  c-0.638-0.646-1.534-0.967-2.437-0.875c-1.648,0.176-2.841,1.654-2.665,3.302c0.076,0.707,0.4,1.364,0.915,1.854l15.468,15.156  L11.938,45.813c-1.267,1.068-1.427,2.962-0.358,4.228c1.068,1.267,2.962,1.427,4.228,0.358c0.089-0.076,0.175-0.156,0.255-0.242  L31.657,35.5l5,4.905c3.485,3.422,9.138,3.445,12.625,0.032l5.063-4.969l15.594,14.688c1.133,1.208,3.031,1.271,4.241,0.14  c1.209-1.133,1.271-3.031,0.139-4.241c-0.08-0.086-0.165-0.167-0.255-0.242L58.624,31.281l15.47-15.156  c1.264-1.072,1.42-2.965,0.349-4.229C73.823,11.166,72.893,10.775,71.938,10.844"></path></symbol>	<symbol id="ico16" viewBox="0 0 66.197998046875 84.16799926757812"><path d="M35.298,1.777L33.098,0l-2.2,1.777C29.636,2.797,0,27.022,0,51.067c0,18.252,14.848,33.101,33.099,33.101  s33.1-14.849,33.1-33.101C66.197,27.022,36.56,2.797,35.298,1.777 M6.999,51.067c0-17.244,19.442-36.026,26.099-41.951v68.051  C18.707,77.168,6.999,65.46,6.999,51.067"></path></symbol>	<symbol id="ico17" viewBox="0 0 80 80"><path d="M70,0c-5.523,0-10,4.477-10,10c0,3.699,2.014,6.921,5,8.651V35H47.5H45V18.651c0.942-0.546,1.785-1.24,2.5-2.052  C49.051,14.837,50,12.532,50,10c0-5.523-4.477-10-10-10c-5.523,0-10,4.477-10,10c0,3.699,2.014,6.921,5,8.651V35H15V18.651  c2.986-1.73,5-4.952,5-8.651c0-5.523-4.477-10-10-10S0,4.477,0,10c0,3.699,2.014,6.921,5,8.651v42.697c-2.986,1.73-5,4.952-5,8.651  c0,5.523,4.477,10,10,10s10-4.477,10-10c0-3.699-2.014-6.922-5-8.651V45h20v16.349c-2.986,1.73-5,4.952-5,8.651  c0,5.523,4.477,10,10,10c5.523,0,10-4.477,10-10c0-2.532-0.949-4.837-2.5-6.599c-0.715-0.813-1.558-1.507-2.5-2.053V45h2.5H70  c2.761,0,5-2.239,5-5V18.651c2.986-1.73,5-4.952,5-8.651C80,4.477,75.523,0,70,0"></path></symbol>	<symbol id="ico18" viewBox="0 0 91.66899871826172 91.66999816894531"><path d="M45.834,91.67C20.561,91.67,0,71.108,0,45.834S20.561,0,45.834,0c25.274,0,45.835,20.561,45.835,45.835  S71.108,91.67,45.834,91.67 M45.834,11.668c-18.839,0-34.165,15.327-34.165,34.166C11.669,64.674,26.995,80,45.834,80  s34.165-15.326,34.165-34.166C79.999,26.996,64.673,11.668,45.834,11.668 M60.928,66.767c-1.561,0-3.026-0.607-4.13-1.709  L41.705,49.964c-1.1-1.1-1.705-2.566-1.705-4.129v-24C40,18.618,42.617,16,45.834,16s5.835,2.618,5.835,5.835v21.576l13.39,13.388  c1.101,1.102,1.709,2.568,1.709,4.129c0,1.562-0.608,3.028-1.71,4.13C63.955,66.159,62.489,66.767,60.928,66.767"></path></symbol>	<symbol id="ico19" viewBox="0 0 53 31.25"><path fill="none" stroke="currentColor" stroke-width="5" stroke-linejoin="round" d="M50.5,15.62c0,0-10.75,13.13-24,13.13  s-24-13.13-24-13.13S13.25,2.5,26.5,2.5S50.5,15.62,50.5,15.62z"></path><path d="M28.38,8.22c-1.186-0.289-2.424-0.289-3.61,0c-0.535,0.137-0.857,0.682-0.72,1.217c0.011,0.042,0.024,0.083,0.04,0.123  l0.53,1.33l0.7,1.77c0.206,0.512-0.043,1.095-0.555,1.301c-0.309,0.124-0.659,0.086-0.935-0.101l-1.58-1.06L21.06,12  c-0.457-0.31-1.079-0.19-1.388,0.267c-0.027,0.039-0.051,0.08-0.072,0.123c-1.798,3.811-0.165,8.358,3.646,10.156  c3.811,1.798,8.358,0.165,10.155-3.646c1.798-3.812,0.166-8.358-3.646-10.156C29.314,8.536,28.854,8.37,28.38,8.25V8.22z"></path></symbol>	<symbol id="ico2" viewBox="0 0 345.1830139160156 431.9960021972656"><path d="M33.615,163.397c8.573,7.67,19.584,12.47,32.189,12.427c8.251,0,17.088-1.973,26.491-6.019  c4.502-1.939,9.149-4.387,13.944-7.306c7.339,8.343,11.467,18.802,11.477,29.794v18.269v0.014v62.198  c0.004,25.412,20.596,46.004,46.008,46.008h0.225c25.411-0.004,46.002-20.596,46.008-46.008v-9.148  c0.005-8.88,3.58-16.853,9.394-22.68c5.827-5.818,13.8-9.389,22.68-9.395c8.88,0.006,16.854,3.581,22.681,9.395  c5.816,5.827,9.389,13.8,9.393,22.68v54.278l-0.744-0.01h0.063l-0.624-0.004c-24.341,0.004-44.213,19.578-44.535,43.986  l-0.225,17.385l-4.019-0.048c-3.849-0.048-7.008,3.034-7.056,6.879c-0.048,3.85,3.034,7.009,6.879,7.057l21.201,0.264l-0.403,30.812  c-0.048,3.85,3.029,7.008,6.878,7.056c3.85,0.053,7.008-3.029,7.056-6.874l0.404-30.82l43.67,0.547l-0.403,30.807  c-0.053,3.85,3.029,7.008,6.879,7.056c3.85,0.053,7.008-3.029,7.056-6.873l0.408-30.815l21.538,0.268  c3.849,0.048,7.008-3.033,7.056-6.878c0.048-3.85-3.034-7.008-6.879-7.056l-4.334-0.054l0.226-17.385l0.004-0.591  c-0.004-24.336-19.55-44.198-43.947-44.505l-2.204-0.029v-54.456c-0.004-25.416-20.597-46.008-46.008-46.008  c-25.411,0.005-46.004,20.597-46.009,46.008v9.149c-0.004,8.88-3.58,16.852-9.393,22.68c-5.827,5.812-13.8,9.388-22.68,9.393h-0.226  c-8.88-0.005-16.853-3.581-22.68-9.393c-5.817-5.828-9.389-13.8-9.393-22.68v-62.213v-22.786c0-7.296,1.344-14.385,3.772-21.029  c6.077,3.696,11.972,6.768,17.684,9.221c12.024,5.155,23.308,7.627,33.82,7.627c17.117,0.044,31.896-6.705,43.561-17.486  c17.549-16.205,28.915-40.954,36.264-67.939c7.306-27.015,10.455-56.395,10.464-82.152c0-2.4-0.028-4.771-0.081-7.099V8.885V8.76  l-0.063-0.494l-0.11-0.826l-0.192-0.624l-0.221-0.658l-0.331-0.614l-0.322-0.557l-0.427-0.528l-0.432-0.499l-0.504-0.427  l-0.537-0.423l-0.62-0.34l-0.571-0.288l-0.806-0.25l-0.456-0.139l-0.102-0.019l-0.086-0.015C264.711,0.73,257.06,0,248.712,0  c-26.606,0.029-60.446,7.32-88.272,28.181c-13.881,10.43-26.179,24.312-34.92,42.187c-3.259,6.658-6.019,13.862-8.203,21.629  c-0.571-1.315-1.147-2.626-1.771-3.883c-9.47-19.229-24.787-31.93-41.165-39.615C57.97,40.795,40.463,37.891,25.517,37.882  c-7.152,0-13.709,0.676-19.397,1.886l-0.038,0.01L5.703,39.85l-0.418,0.139L4.57,40.224l-0.595,0.288l-0.586,0.331l-0.557,0.418  l-0.484,0.422l-0.456,0.504L1.483,42.71l-0.346,0.572l-0.307,0.595l-0.24,0.662l-0.178,0.615l-0.115,0.768l-0.062,0.417  C0.077,49.742,0,53.242,0,56.818c0.029,25.032,3.85,53.702,13.637,76.958C18.552,145.387,24.994,155.726,33.615,163.397   M320.256,362.611l-0.004,0.418l-0.222,16.813l-78.058-0.969l0.221-16.814c0.211-16.776,13.896-30.24,30.601-30.235h0.325h0.063  l16.881,0.211C306.82,332.242,320.261,345.898,320.256,362.611 M188.271,27.533c20.246-9.768,42.379-13.613,60.438-13.599  c5.274,0,10.16,0.341,14.558,0.922l0.014,1.152c0.024,32.813-5.485,72.336-18.168,102.816c-6.315,15.25-14.399,28.171-24.048,37.008  c-4.824,4.43-10.021,7.862-15.652,10.205c-5.636,2.337-11.717,3.609-18.484,3.614c-8.314,0-17.707-1.949-28.335-6.499  c-5.323-2.28-10.948-5.218-16.872-8.875c4.469-6.787,10.248-12.735,17.276-17.295c8.611-5.572,14.928-11.26,20.452-17.376  c5.535-6.12,10.282-12.556,16.21-20.03c2.391-3.014,1.883-7.397-1.133-9.787c-3.014-2.391-7.396-1.882-9.787,1.133  c-6.086,7.689-10.718,13.929-15.614,19.329c-4.911,5.41-10.08,10.08-17.708,15.039c-8.625,5.596-15.787,12.84-21.278,21.139  c-1.454-1.061-2.923-2.165-4.411-3.307c-0.087-2.352-0.183-4.714-0.183-6.98c0.005-24.297,4.767-43.857,12.495-59.659  C149.636,52.824,167.996,37.325,188.271,27.533 M81.946,69.12c8.496,6.288,15.816,14.462,21.106,25.162  c5.28,10.704,8.548,24.009,8.553,40.699c0,2.275-0.144,4.694-0.269,7.094c-1.238,0.941-2.476,1.887-3.686,2.751  c-1.81-1.373-3.658-2.708-5.64-3.903c-6.504-3.941-10.862-7.613-15.029-11.889c-4.157-4.268-8.126-9.25-13.382-15.437  c-2.491-2.933-6.893-3.288-9.821-0.792c-2.933,2.491-3.288,6.893-0.792,9.821c5.083,5.971,9.187,11.155,14.006,16.118  c4.81,4.958,10.34,9.595,17.813,14.098l0.115,0.076c-2.803,1.551-5.544,2.962-8.131,4.076c-8.016,3.451-14.961,4.886-20.981,4.886  c-9.163-0.043-16.396-3.173-22.939-8.918c-9.763-8.588-17.299-23.66-22.041-41.189c-4.781-17.501-6.893-37.301-6.888-54.975  c0-1.454,0.067-2.827,0.096-4.248c3.48-0.46,7.334-0.744,11.491-0.744C43.061,51.787,65.016,56.549,81.946,69.12"></path></symbol>	<symbol id="ico20" viewBox="0 0 21.280000686645508 17.285999298095703"><path d="M21.28,2.044c-0.779,0.346-1.624,0.585-2.507,0.69c0.903-0.54,1.591-1.396,1.922-2.417  c-0.845,0.5-1.779,0.864-2.78,1.059C17.124,0.532,15.987,0,14.733,0c-2.408,0-4.363,1.955-4.363,4.364  c0,0.344,0.039,0.675,0.111,0.994c-3.631-0.183-6.844-1.917-9-4.56C1.104,1.441,0.89,2.195,0.89,2.994  c0,1.513,0.773,2.851,1.942,3.629C2.117,6.604,1.447,6.404,0.857,6.078v0.053c0,2.116,1.506,3.882,3.5,4.286  c-0.364,0.096-0.753,0.148-1.149,0.148c-0.279,0-0.552-0.025-0.825-0.077c0.559,1.733,2.168,2.993,4.078,3.033  c-1.494,1.168-3.378,1.862-5.423,1.862c-0.35,0-0.694-0.02-1.039-0.058c1.935,1.24,4.228,1.96,6.695,1.96  c8.026,0,12.417-6.65,12.417-12.415l-0.014-0.565C19.955,3.688,20.695,2.923,21.28,2.044"></path></symbol>	<symbol id="ico21" viewBox="0 0 16 16"><path d="M14.398,0H1.602C0.719,0,0,0.719,0,1.602v12.796C0,15.281,0.719,16,1.602,16h12.796  C15.281,16,16,15.281,16,14.398V1.602C16,0.719,15.281,0,14.398,0 M8,4.801c1.762,0,3.199,1.437,3.199,3.199  c0,1.762-1.438,3.199-3.199,3.199c-1.762,0-3.199-1.438-3.199-3.199C4.801,6.238,6.238,4.801,8,4.801 M2,14.398  c-0.238,0-0.398-0.16-0.398-0.398V7.199h1.679C3.199,7.441,3.199,7.762,3.199,8c0,2.641,2.16,4.801,4.801,4.801  c2.641,0,4.801-2.16,4.801-4.801c0-0.238,0-0.559-0.082-0.801h1.68V14c0,0.238-0.16,0.398-0.398,0.398H2z M14.398,3.602  C14.398,3.84,14.238,4,14,4h-1.602C12.16,4,12,3.84,12,3.602V2c0-0.238,0.16-0.398,0.398-0.398H14c0.238,0,0.398,0.16,0.398,0.398  V3.602z"></path></symbol>	<symbol id="ico22" viewBox="0 0 120.63300323486328 76.84400177001953"><path d="M38.418,32.422H76.84v6c0,21.184-17.235,38.422-38.422,38.422C17.234,76.844,0,59.606,0,38.422  C0,17.238,17.234,0,38.418,0c8.547,0,16.644,2.754,23.418,7.957l-7.313,9.516C49.867,13.895,44.297,12,38.418,12  C23.847,12,12,23.856,12,38.422c0,14.565,11.851,26.422,26.418,26.422c12.508,0,23.011-8.734,25.734-20.422H38.418V32.422z"></path><polygon points="110.172,32.422 120.633,32.422 120.633,44.422 110.172,44.422 110.172,54.883 98.172,54.883   98.172,44.422 87.715,44.422 87.715,32.422 98.172,32.422 98.172,21.961 110.172,21.961"></polygon></symbol>	<symbol id="ico23" viewBox="0 0 40.71200180053711 39.060001373291016"><path d="M18.953,24.143H6.467c-3.565,0-6.467-2.9-6.467-6.466V6.539c0-3.565,2.901-6.467,6.467-6.467h7.972  c0.828,0,1.5,0.672,1.5,1.5s-0.672,1.5-1.5,1.5H6.467C4.556,3.072,3,4.628,3,6.539v11.138c0,1.911,1.556,3.466,3.467,3.466h12.486  c1.912,0,3.467-1.555,3.467-3.466v-4.995c0-0.828,0.673-1.5,1.5-1.5c0.828,0,1.5,0.672,1.5,1.5v4.995  C25.42,21.242,22.518,24.143,18.953,24.143"></path><path d="M26.787,31.602H14.3c-3.565,0-6.466-2.901-6.466-6.467v-2.492c0-0.828,0.672-1.5,1.5-1.5c0.828,0,1.5,0.672,1.5,1.5v2.492  c0,1.911,1.555,3.467,3.466,3.467h12.486c1.911,0,3.466-1.556,3.466-3.467V13.997c0-1.911-1.555-3.466-3.466-3.466  c-0.828,0-1.5-0.672-1.5-1.5s0.672-1.5,1.5-1.5c3.564,0,6.466,2.9,6.466,6.466v11.138C33.253,28.7,30.352,31.602,26.787,31.602"></path><path d="M34.245,39.06H21.76c-3.566,0-6.468-2.899-6.468-6.467v-2.491c0-0.828,0.672-1.5,1.5-1.5c0.828,0,1.5,0.672,1.5,1.5v2.491  c0,1.911,1.556,3.467,3.468,3.467h12.484c1.911,0,3.467-1.556,3.467-3.467V21.456c0-1.911-1.556-3.467-3.467-3.467h-2.491  c-0.827,0-1.5-0.672-1.5-1.5c0-0.827,0.673-1.5,1.5-1.5h2.492c3.564,0,6.467,2.902,6.467,6.467v11.138  C40.712,36.16,37.81,39.06,34.245,39.06"></path><path d="M13.019,16.812c-0.441,0-0.878-0.193-1.175-0.565l-4.081-5.126c-0.516-0.648-0.408-1.592,0.239-2.108  c0.65-0.516,1.592-0.408,2.108,0.239l4.081,5.126c0.516,0.648,0.408,1.592-0.239,2.108C13.676,16.705,13.346,16.812,13.019,16.812"></path><path d="M13.018,16.811c-0.172,0-0.346-0.029-0.516-0.092c-0.776-0.284-1.177-1.143-0.894-1.92  c0.111-0.309,2.843-7.631,11.109-14.456c0.64-0.527,1.585-0.437,2.112,0.202c0.527,0.639,0.438,1.584-0.203,2.112  c-7.6,6.273-10.177,13.102-10.202,13.17C14.204,16.434,13.629,16.811,13.018,16.811"></path></symbol>	<symbol id="ico24" viewBox="0 0 94.5999984741211 79.30000305175781"><clipPath></clipPath><path clip-path="url(#SVGID_2_)" d="M94.601,7.2v34.6c0,4-3.201,7.2-7.201,7.2h-3.6v-5.5h3.6c0.9,0,1.701-0.7,1.701-1.7V7.2   c0-0.9-0.701-1.7-1.701-1.7H22.7c-0.9,0-1.7,0.7-1.7,1.7v3.3h-5.5V7.2c0-4,3.2-7.2,7.2-7.2h64.8C91.399,0,94.601,3.2,94.601,7.2    M79.101,22.399V57c0,4-3.201,7.199-7.201,7.199H60v-4.5c0-0.399,0-0.699-0.101-1.099h12c0.9,0,1.701-0.701,1.701-1.701V35.3H5.5   v21.8C5.5,58,6.2,58.8,7.2,58.8h12c0,0.399-0.1,0.7-0.1,1.1v4.5H7.2c-4,0-7.2-3.2-7.2-7.2v-34.8c0-4,3.2-7.199,7.2-7.199H72   C75.899,15.2,79.101,18.399,79.101,22.399 M73.601,22.399c0-0.899-0.701-1.699-1.701-1.699H7.2c-0.9,0-1.7,0.699-1.7,1.699V26.1   h68.101V22.399z M54,59.8v16.5c0,1.6-1.3,3-3,3H28c-1.6,0-3-1.3-3-3V59.8c0-1.601,1.3-3,3-3h0.3h5H46v-3.699   c0-3.201-2.3-6.101-5.5-6.5c-3.6-0.5-6.7,2.1-7.1,5.399c-0.1,0.5-0.5,0.899-1,0.899h-3c-0.6,0-1.1-0.5-1-1.1   c0.6-6.1,6-10.7,12.4-10.199C46.7,42.2,51,47.3,51,53.199V56.8h0.101C52.7,56.8,54,58.101,54,59.8 M42.5,66.5   c0-1.399-1-2.5-2.3-2.7c-1.2-0.199-2.5,0.399-3.1,1.6C36.6,66.601,36.9,68,38,68.8c0.2,0.2,0.3,0.301,0.3,0.6V73   c0,1,1.1,1.8,2.1,1.199C40.8,74,41.1,73.5,41.1,73v-3.601c0-0.299,0.1-0.399,0.3-0.6C42.1,68.199,42.5,67.399,42.5,66.5"></path></symbol>	<symbol id="ico25" viewBox="0 0 102.80000305175781 62.5629997253418"><path d="M102.8,42.4c0,1.3-1.1,2.399-2.399,2.399H92.1H8.2H2.4C1.1,44.8,0,43.7,0,42.4c0-1.301,1.1-2.399,2.4-2.399h5.8V25.6  c0-1.9,1.6-3.5,3.5-3.5h2.4V10.6c0-1.6,1.3-2.9,2.9-2.9h1.7V0.8c0-0.4,0.4-0.8,0.8-0.8h3.2c0.4,0,0.8,0.4,0.8,0.8v6.9h1.9V0.8  c0-0.4,0.4-0.8,0.8-0.8h3.2c0.4,0,0.8,0.4,0.8,0.8v6.9h11.2c1.6,0,2.9,1.3,2.9,2.9v11.5h26.8l2.5-3c0.801-0.9,1.9-1.4,3.101-1.4h21  c1.2,0,2.2,0.5,3,1.4c0.7,0.9,1,2.1,0.7,3.2C100.3,27,98.3,34.6,95.3,40.1h5.2C101.8,40.1,102.8,41.1,102.8,42.4 M18.4,22.1H40V12  H18.3v10.1H18.4z M96.5,22.4H77.1L73.4,26.9H13v13.2h76.8C93,35.5,95.5,26.5,96.5,22.4"></path><path d="M26.1,14.5h-3c-0.6,0-1.1,0.5-1.1,1.1v3c0,0.6,0.5,1.1,1.1,1.1h3c0.6,0,1.1-0.5,1.1-1.1v-3C27.2,15.1,26.7,14.5,26.1,14.5"></path><path d="M35.3,14.5h-3c-0.6,0-1.1,0.5-1.1,1.1v3c0,0.6,0.5,1.1,1.1,1.1h3c0.6,0,1.1-0.5,1.1-1.1v-3C36.5,15.1,36,14.5,35.3,14.5"></path><path d="M71.589,31.84c-0.82-0.82-2.15-0.82-2.97,0c-0.82,0.82-0.82,2.149,0,2.97c0.819,0.82,2.149,0.82,2.97,0  C72.409,33.989,72.409,32.66,71.589,31.84"></path><path d="M78.6,31.814c-0.82-0.82-2.15-0.82-2.97,0c-0.82,0.82-0.82,2.149,0,2.97c0.819,0.82,2.149,0.82,2.97,0  C79.419,33.964,79.419,32.635,78.6,31.814"></path><path d="M85.609,31.789c-0.819-0.82-2.149-0.82-2.97,0c-0.819,0.82-0.819,2.15,0,2.97c0.82,0.82,2.15,0.82,2.97,0  C86.43,33.938,86.43,32.608,85.609,31.789"></path><path stroke="currentColor" stroke-width="5" stroke-linecap="round" stroke-linejoin="round" stroke-miterlimit="10" d="  M59,57.9c16.85-8.678,18.983,7.803,33.7,0"></path><path stroke="currentColor" stroke-width="5" stroke-linecap="round" stroke-linejoin="round" stroke-miterlimit="10" d="  M12.84,54.573c16.85-8.678,18.983,7.803,33.7,0"></path></symbol>	<symbol id="ico26" viewBox="0 0 56.965999603271484 56.965999603271484"><path d="M55.146,51.887L41.588,37.786c3.486-4.144,5.396-9.358,5.396-14.786c0-12.682-10.318-23-23-23s-23,10.318-23,23  s10.318,23,23,23c4.761,0,9.298-1.436,13.177-4.162l13.661,14.208c0.571,0.593,1.339,0.92,2.162,0.92  c0.779,0,1.518-0.297,2.079-0.837C56.255,54.982,56.293,53.08,55.146,51.887z M23.984,6c9.374,0,17,7.626,17,17s-7.626,17-17,17  s-17-7.626-17-17S14.61,6,23.984,6z"></path></symbol>	<symbol id="ico27" viewBox="0 0 198 198"><path d="M0,92.905h48.024c-0.821,35-10.748,38.973-23.216,40.107L20,133.608v38.486l5.542-0.297   c16.281-0.916,34.281-3.851,46.29-18.676C82.359,140.125,87,118.893,87,86.3V25.905H0V92.905z"></path><path d="M111,25.905v67h47.383c-0.821,35-10.427,38.973-22.895,40.107L131,133.608v38.486l5.222-0.297   c16.281-0.916,34.442-3.851,46.451-18.676C193.199,140.125,198,118.893,198,86.3V25.905H111z"></path></symbol>	<symbol id="ico3" viewBox="0 0 356.6400146484375 374.3999938964844"><path d="M349.44,152.496c3.976,0,7.199-3.224,7.199-7.2s-3.224-7.2-7.199-7.2h-43.633v-36.48h43.633c3.976,0,7.199-3.224,7.199-7.2  s-3.224-7.2-7.199-7.2h-43.633V58.032c0-3.976-3.224-7.2-7.199-7.2h-11.28V7.2c0-3.976-3.225-7.2-7.2-7.2s-7.2,3.224-7.2,7.2v43.632  H236.4V7.2c0-3.976-3.225-7.2-7.2-7.2c-3.977,0-7.2,3.224-7.2,7.2v43.632h-36.48V7.2c0-3.976-3.224-7.2-7.199-7.2  c-3.977,0-7.2,3.224-7.2,7.2v43.632h-36.48V7.2c0-3.976-3.224-7.2-7.2-7.2s-7.2,3.224-7.2,7.2v43.632H83.76V7.2  c0-3.976-3.224-7.2-7.2-7.2s-7.2,3.224-7.2,7.2v43.632H58.032c-3.976,0-7.2,3.224-7.2,7.2v29.136H7.2c-3.976,0-7.2,3.224-7.2,7.2  c0,3.976,3.224,7.2,7.2,7.2h43.632v36.48H7.2c-3.976,0-7.2,3.224-7.2,7.2s3.224,7.2,7.2,7.2h43.632v36.48H7.2  c-3.976,0-7.2,3.224-7.2,7.199c0,3.977,3.224,7.2,7.2,7.2h43.632V240H7.2c-3.976,0-7.2,3.225-7.2,7.2c0,3.977,3.224,7.2,7.2,7.2  h43.632v36.48H7.2c-3.976,0-7.2,3.224-7.2,7.199c0,3.977,3.224,7.2,7.2,7.2h43.632v11.185c0,3.976,3.224,7.199,7.2,7.199h11.28  V367.2c0,3.977,3.224,7.2,7.2,7.2c3.976,0,7.2-3.224,7.2-7.2v-43.632h36.48V367.2c0,3.977,3.224,7.2,7.2,7.2s7.2-3.224,7.2-7.2  v-43.632h36.48V367.2c0,3.977,3.224,7.2,7.201,7.2c3.976,0,7.199-3.224,7.199-7.2v-43.632h36.48V367.2c0,3.977,3.224,7.2,7.2,7.2  c3.976,0,7.199-3.224,7.199-7.2v-43.632h36.48V367.2c0,3.977,3.224,7.2,7.2,7.2c3.976,0,7.2-3.224,7.2-7.2v-43.632h11.279  c3.977,0,7.2-3.224,7.2-7.2v-11.184h43.632c3.977,0,7.2-3.225,7.2-7.2s-3.224-7.2-7.2-7.2h-43.536V254.4h43.633  c3.976,0,7.199-3.224,7.199-7.2c0-3.976-3.224-7.2-7.199-7.2h-43.633V203.52h43.633c3.976,0,7.199-3.224,7.199-7.2  c0-3.976-3.224-7.2-7.199-7.2h-43.633V152.64L349.44,152.496z M291.408,309.167H65.232V65.232h226.176V309.167z"></path><text transform="matrix(1 0 0 1 97.0903 238.9565)" font-family="'Ubuntu'" font-size="144.0251">64</text></symbol>	<symbol id="ico4" viewBox="0 0 470.3999938964844 467.5580139160156"><path d="M175.344,137.798c-18.506,2.408-35.232,12.253-46.32,27.264c-8.403,14.091-15.643,28.844-21.648,44.112  c-4.679-2.3-9.811-3.53-15.024-3.6h-6.72c-14.306,0.379-25.807,11.901-26.16,26.208v12.864c0.244,11.766,7.971,22.063,19.2,25.584  c-5.441,11.631-8.119,24.363-7.824,37.2v83.088c0.026,14.861,12.067,26.902,26.928,26.928H120  c14.861-0.025,26.902-12.066,26.928-26.928v-3.408H323.28v3.408c0.025,14.898,12.125,26.955,27.023,26.928c0.032,0,0.064,0,0.097,0  h22.416c14.86-0.025,26.901-12.066,26.928-26.928v-82.752c0.307-12.885-2.371-25.666-7.824-37.344  c11.245-3.527,18.978-13.85,19.2-25.632v-12.864c-0.353-14.307-11.854-25.829-26.16-26.208h-6.864  c-5.182,0.077-10.28,1.306-14.928,3.6c-6.004-15.268-13.244-30.021-21.647-44.112c-11.096-15.099-27.884-25.001-46.465-27.408  c-19.799-3.054-39.826-4.371-59.855-3.936C215.171,133.427,195.143,134.744,175.344,137.798 M291.792,156.71  c13.479,1.399,25.761,8.358,33.888,19.2c9.409,16.425,17.438,33.605,24,51.36c1.99,4.914,7.588,7.285,12.501,5.295  c1.094-0.442,2.095-1.082,2.955-1.887c3.362-3.553,7.937-5.712,12.816-6.048h6.096c4.188-0.001,7.585,3.394,7.585,7.583  c0,0.048,0,0.097-0.001,0.145v11.76c-0.148,4.391-3.674,7.915-8.063,8.064h-8.16c-5.302,0-9.6,4.298-9.6,9.6  c0,2.077,0.674,4.099,1.92,5.761c0.768,1.056,1.535,2.111,2.256,3.119c7.151,10.864,10.772,23.673,10.368,36.673v83.184  c0,4.268-3.46,7.729-7.729,7.729H350.4c-4.269,0-7.729-3.461-7.729-7.729V377.51c0-5.302-4.298-9.601-9.6-9.601H137.52  c-5.302,0-9.6,4.299-9.6,9.601v13.008c0.001,4.268-3.458,7.729-7.726,7.73c-0.064,0-0.129,0-0.194-0.002H97.776  c-4.268,0-7.728-3.461-7.728-7.729v-83.136c-0.378-12.938,3.243-25.676,10.368-36.48c0.72-1.056,1.44-2.111,2.256-3.12  c3.181-4.241,2.322-10.259-1.92-13.439c-1.662-1.246-3.683-1.92-5.76-1.92h-8.304c-4.421-0.077-7.987-3.644-8.064-8.064v-11.76  c-0.081-4.188,3.248-7.648,7.436-7.729c0.113-0.002,0.227-0.002,0.34,0.001h6c4.913,0.313,9.526,2.473,12.912,6.048  c3.872,3.622,9.947,3.419,13.569-0.453c0.805-0.861,1.445-1.863,1.887-2.955c6.564-17.755,14.592-34.934,24-51.36  c8.127-10.842,20.41-17.801,33.888-19.2c18.7-2.928,37.619-4.229,56.544-3.888c18.917-0.436,37.835,0.769,56.544,3.6L291.792,156.71  z M144,272.198c-12.321-3.181-24.887,4.229-28.068,16.549c-0.487,1.886-0.733,3.824-0.732,5.771v8.352  c0.026,12.74,10.348,23.063,23.088,23.089h31.776c12.751-0.027,23.066-10.387,23.039-23.138  c-0.023-10.459-7.072-19.596-17.183-22.271L144,272.198z M169.92,306.758h-31.584c-2.147,0-3.888-1.741-3.888-3.889v-8.304  c0-2.129,1.711-3.861,3.84-3.888h1.008l31.776,8.352c2.068,0.579,3.275,2.725,2.697,4.792c-0.466,1.665-1.976,2.822-3.705,2.84  L169.92,306.758z M300.096,325.958h31.776c12.777,0.105,23.221-10.166,23.327-22.943c0.001-0.048,0.001-0.097,0.001-0.146v-8.304  c0.033-12.725-10.256-23.066-22.98-23.1c-1.963-0.005-3.919,0.241-5.819,0.731l-31.776,8.353  c-12.327,3.261-19.676,15.897-16.415,28.225c2.675,10.111,11.813,17.161,22.271,17.184H300.096z M299.088,299.126l32.112-8.353  h1.008c2.147,0,3.888,1.741,3.888,3.888v8.353c0,2.146-1.74,3.888-3.888,3.888h-31.92c-2.147-0.021-3.87-1.779-3.848-3.927  c0.017-1.729,1.175-3.239,2.84-3.705L299.088,299.126z M465.6,130.166L240,1.286c-2.97-1.715-6.63-1.715-9.6,0L4.8,130.166  c-2.982,1.722-4.814,4.909-4.8,8.352v319.44c0,5.302,4.298,9.6,9.6,9.6h451.2c5.303,0,9.601-4.298,9.601-9.6V138.47  C470.396,135.044,468.567,131.879,465.6,130.166 M451.2,448.358h-432v-304.32l216-123.36l216,123.36V448.358z"></path></symbol>	<symbol id="ico5" viewBox="0 0 460.79998779296875 460.79998779296875"><path d="M230.4,0C103.268,0,0,103.268,0,230.4c0,127.132,103.268,230.4,230.4,230.4c127.132,0,230.399-103.268,230.399-230.4  C460.8,103.268,357.532,0,230.4,0 M230.4,19.2c116.756,0,211.199,94.445,211.199,211.2c0,116.755-94.443,211.201-211.199,211.201  c-116.755,0-211.2-94.445-211.2-211.201C19.2,113.645,113.645,19.2,230.4,19.2 M230.4,48C129.778,48,48,129.777,48,230.4  s81.778,182.4,182.4,182.4c100.622,0,182.399-81.777,182.399-182.4S331.022,48,230.4,48 M230.4,67.2  c69.179,0,128.166,42.984,151.949,103.65c-41.112-16.851-94.061-26.851-151.949-26.851c-57.889,0-110.837,10-151.95,26.851  C102.234,110.184,161.221,67.2,230.4,67.2 M230.4,163.2c63.213,0,119.986,12.548,159.3,31.949  c2.503,11.376,3.899,23.114,3.899,35.251c0,13.358-1.634,26.43-4.649,38.85c-3.195-0.24-6.467-0.451-9.75-0.451  c-63.509,0-115.2,51.691-115.2,115.2c0,2.071,0.17,4.132,0.3,6.15c-10.951,2.311-22.254,3.449-33.899,3.449  c-11.646,0-22.949-1.14-33.9-3.449c0.13-2.019,0.3-4.079,0.3-6.15c0-63.509-51.691-115.2-115.2-115.2  c-3.283,0-6.555,0.207-9.75,0.451c-3.016-12.42-4.65-25.492-4.65-38.85c0-12.137,1.397-23.875,3.9-35.251  C110.413,175.748,167.187,163.2,230.4,163.2 M230.4,192c-26.396,0-48,21.604-48,48c0,26.396,21.604,48,48,48  c26.396,0,48-21.604,48-48C278.4,213.604,256.796,192,230.4,192 M230.4,211.2c16.019,0,28.8,12.78,28.8,28.8  c0,16.02-12.781,28.8-28.8,28.8c-16.02,0-28.8-12.78-28.8-28.8C201.6,223.98,214.381,211.2,230.4,211.2 M81.6,288  c53.133,0,96,42.867,96,96c0,0.303,0.002,0.602,0,0.9c-46.055-15.71-82.787-51.367-99.9-96.75  C79.012,288.097,80.274,288.001,81.6,288L81.6,288z M379.2,288c1.326,0,2.588,0.102,3.899,0.149  c-17.112,45.382-53.845,81.039-99.899,96.75c-0.002-0.298,0-0.6,0-0.9C283.2,330.867,326.067,287.999,379.2,288L379.2,288z"></path></symbol>	    <symbol id="ico6" viewBox="0 0 42.902000427246094 49.875999450683594">        <path d="M35.015,4.302c-2.115,0-3.83,1.715-3.83,3.83c0,2.116,1.715,3.83,3.83,3.83s3.83-1.714,3.83-3.83  C38.84,6.019,37.128,4.308,35.015,4.302 M35.015,9.962c-1.011,0-1.83-0.819-1.83-1.83c0-1.01,0.819-1.83,1.83-1.83  s1.83,0.82,1.83,1.83C36.845,9.143,36.025,9.962,35.015,9.962"></path>        <path d="M40.585,2.322c-3.063-3.083-8.047-3.098-11.13-0.035c-2.41,2.395-3.011,6.067-1.49,9.105l6.12,12.44  c0.246,0.494,0.846,0.695,1.341,0.449c0.194-0.097,0.353-0.255,0.449-0.449l6.21-12.44C43.586,8.361,42.982,4.709,40.585,2.322   M40.285,10.482l-5.271,10.65l-5.259-10.65c-1.439-2.905-0.251-6.426,2.654-7.865c2.905-1.44,6.427-0.251,7.866,2.654  c0.813,1.642,0.813,3.569,0,5.211H40.285z"></path>        <path d="M6.535,23.223c-1.812,0-3.28,1.468-3.28,3.28c0,1.811,1.468,3.279,3.28,3.279s3.28-1.469,3.28-3.279  C9.815,24.69,8.347,23.223,6.535,23.223 M6.535,27.782c-0.707,0-1.28-0.572-1.28-1.279c0-0.708,0.573-1.28,1.28-1.28  s1.28,0.573,1.28,1.28C7.815,27.21,7.242,27.782,6.535,27.782"></path>        <path d="M1.915,21.683c-1.98,1.978-2.479,4.999-1.24,7.51l5,10c0.246,0.493,0.847,0.694,1.341,0.447  c0.195-0.097,0.352-0.254,0.449-0.447l5-10c1.596-3.234,0.268-7.15-2.967-8.747c-2.507-1.237-5.524-0.74-7.503,1.236H1.915z   M10.595,28.313l-4.06,8.221l-4.06-8.221c-1.109-2.242-0.192-4.959,2.051-6.07c2.242-1.109,4.96-0.191,6.069,2.051  C11.222,25.56,11.222,27.046,10.595,28.313"></path>        <path d="M35.066,26.829c1.275,0,2.314,1.039,2.314,2.314c0,1.276-1.039,2.315-2.314,2.315c-1.276,0-2.314-1.039-2.314-2.315  C32.752,27.868,33.79,26.829,35.066,26.829 M35.066,24.829c-2.383,0-4.314,1.932-4.314,4.314c0,2.385,1.932,4.315,4.314,4.315  c2.384,0,4.314-1.931,4.314-4.315C39.381,26.761,37.45,24.829,35.066,24.829"></path>        <path d="M6.535,43.245c1.276,0,2.314,1.039,2.314,2.315c0,1.277-1.038,2.316-2.314,2.316c-1.276,0-2.315-1.039-2.315-2.316  C4.22,44.284,5.259,43.245,6.535,43.245 M6.535,41.245c-2.383,0-4.315,1.934-4.315,4.315c0,2.383,1.932,4.316,4.315,4.316  c2.383,0,4.314-1.934,4.314-4.316C10.849,43.179,8.918,41.245,6.535,41.245"></path>        <path fill="none" stroke="#fff" stroke-width="2" stroke-miterlimit="10"              d="M9.815,45.561c9.151,0,11.181-2.561,11.181-7.646  s1.559-8.771,10.188-8.771"></path>    </symbol>	<symbol id="ico7" viewBox="0 0 259.93798828125 240.78500366210938"><clipPath></clipPath><path clip-path="url(#SVGID_2_)" d="M139.77,112.247c-7.386-3.692-17.724-2.954-23.631,2.954   c-3.692,3.692-5.908,8.862-5.908,14.031c0,3.692,0.739,6.646,2.954,9.6l-8.861,9.601l8.123,8.123l8.861-8.862   c2.954,1.478,5.908,2.954,9.6,2.954c5.17,0,10.339-2.215,14.031-5.907c3.691-3.692,5.907-8.861,5.907-14.031   c0-3.692-0.738-6.646-2.953-9.6l46.522-46.523l-8.123-8.123L139.77,112.247z M136.815,135.878c-3.692,3.691-9.601,3.691-12.554,0   c-1.477-1.478-2.954-3.692-2.954-6.646c0-2.216,0.739-4.431,2.954-6.646c1.477-1.478,3.692-2.955,6.646-2.955   c2.216,0,4.431,0.738,6.646,2.955c1.478,1.477,2.954,3.691,2.954,6.646C139.03,132.186,138.292,134.4,136.815,135.878"></path><path clip-path="url(#SVGID_2_)" d="M177.555,206.995c1.696,0,3.076,1.38,3.076,3.076v14.139c0,1.695-1.38,3.075-3.076,3.075   H82.383c-1.696,0-3.075-1.38-3.075-3.075v-14.139c0-1.696,1.379-3.076,3.075-3.076H177.555 M177.555,197.995H82.383   c-6.669,0-12.075,5.406-12.075,12.076v14.139c0,6.669,5.406,12.075,12.075,12.075h95.171c6.669,0,12.076-5.406,12.076-12.075   v-14.139C189.631,203.401,184.224,197.995,177.555,197.995"></path><path clip-path="url(#SVGID_2_)" d="M41.897,225.409l6.909-8.836c-7.274-6.796-13.59-14.378-18.53-22.357l24.67-13.218   l-5.908-9.601L24.37,184.616c-7.385-14.77-12.554-31.755-13.293-48.738h30.837v-11.077H11.077   c0.739-17.723,5.17-33.969,13.293-48.739l25.64,14.015l5.907-9.6l-25.64-14.753c9.6-14.031,21.416-26.585,36.185-36.185   l16.56,24.854l9.601-5.908L76.062,22.893c14.769-7.384,31.015-12.554,48.738-13.292v28.096h11.078V9.601   c17.723,0.738,33.97,5.169,48.738,13.292l-14.156,23.836l9.6,5.907l14.157-23.097c14.03,9.6,26.584,21.416,36.184,36.185   l-25.972,15.115l5.908,9.6l25.972-15.115c7.385,14.769,12.554,31.015,13.292,48.738h-30.709v11.077H249.6   c-0.738,16.985-5.169,33.97-13.292,48.739l-23.231-15.236l-5.907,9.601l23.23,15.235c-5.521,8.099-11.778,15.646-18.767,22.368   l7.467,8.254c25.799-24.214,40.839-58.093,40.839-94.13c0-71.631-58.339-129.969-129.969-129.969C58.338,0.001,0,58.339,0,129.97   C0,166.659,15.583,201.116,41.897,225.409"></path></symbol>	<symbol id="ico8" viewBox="0 0 498.6929931640625 480"><clipPath></clipPath><path clip-path="url(#SVGID_2_)" d="M469.359,243.178h-23.468c-11.251-33.273-32.876-62.062-61.698-82.134l5.671-52.215   c0.585-5.368-3.294-10.194-8.662-10.778c-1.126-0.123-2.264-0.049-3.365,0.218l-95.139,23.076   c-11.019-1.5-22.125-2.252-33.245-2.249c-51.254-0.734-101.251,15.874-141.878,47.13c-20.948,16.329-37.707,37.412-48.89,61.503   c-23.465-1.936-40.919-22.527-38.983-45.992c0.908-11.004,6.049-21.227,14.342-28.516c3.895-3.741,4.02-9.931,0.279-13.825   c-3.512-3.657-9.237-4.022-13.186-0.842c-25.823,22.726-28.334,62.083-5.608,87.907c9.404,10.685,22.184,17.828,36.213,20.237   c-3.562,12.332-5.372,25.104-5.377,37.939c0,47.13,24.249,91.424,66.881,122.811l-8.605,14.96   c-4.022,7.231-4.803,15.825-2.151,23.663c2.356,7.693,7.476,14.241,14.374,18.383l20.044,11.538   c4.509,2.635,9.64,4.02,14.863,4.009c2.643-0.015,5.273-0.377,7.822-1.075c7.798-2.044,14.411-7.207,18.285-14.276l11.147-22   c36.21,9.168,74.037,9.938,110.589,2.249l2.933,10.853c3.07,13.73,15.266,23.486,29.334,23.468   c2.104-0.003,4.202-0.232,6.258-0.685l22.782-4.986c16.046-4.213,25.664-20.606,21.512-36.668l-5.085-23.857   c24.494-15.737,44.662-37.35,58.668-62.873h33.344c16.091-0.261,29.071-13.243,29.334-29.334V273   C498.695,256.72,485.638,243.444,469.359,243.178 M368.842,120.563l-3.129,28.454c-12.826-7.306-26.354-13.301-40.383-17.894   L368.842,120.563z M479.137,320.521c0,5.4-4.378,9.778-9.777,9.778h-39.112c-0.456-0.032-0.913-0.032-1.369,0   c-0.715-0.079-1.436-0.079-2.15,0c-1.082,0.587-2.128,1.24-3.13,1.956c-0.487,0.536-0.914,1.128-1.271,1.76   c-0.324,0.367-0.618,0.759-0.88,1.173c-13.373,26.659-34.15,48.896-59.841,64.046c-0.574,0.43-1.099,0.921-1.565,1.466   c-0.423,0.357-0.816,0.75-1.173,1.174c-0.539,1.118-1.028,2.261-1.467,3.423c-0.047,0.553-0.047,1.108,0,1.661   c-0.079,0.716-0.079,1.437,0,2.151l6.552,30.41c1.613,5.488-1.23,11.299-6.552,13.396l-23.468,6.649   c-5.722,1.072-11.233-2.689-12.319-8.409l-5.378-20.241c-0.219-0.51-0.48-1.001-0.782-1.467c-0.252-0.686-0.58-1.342-0.978-1.955   c-0.365-0.355-0.758-0.683-1.174-0.978c-0.497-0.55-1.054-1.042-1.662-1.467h-1.271c-0.714-0.352-1.47-0.614-2.248-0.782h-1.467   c-0.78-0.094-1.567-0.094-2.348,0c-38.633,9.461-79.057,8.753-117.334-2.054h-1.174h-1.955h-1.76l-1.76,0.587l-1.565,0.88   l-1.467,1.174c-0.437,0.45-0.83,0.94-1.173,1.467c-0.243,0.247-0.471,0.508-0.684,0.782l-14.472,28.551   c-1.32,2.346-3.548,4.044-6.16,4.694c-2.643,0.757-5.482,0.365-7.822-1.076l-20.143-11.636c-2.635-1.677-4.578-4.244-5.476-7.235   c-1.146-2.55-1.146-5.468,0-8.018l13.103-22.588c0.209-0.506,0.373-1.029,0.489-1.564c0.257-0.598,0.453-1.22,0.587-1.858   c0.058-0.617,0.058-1.238,0-1.856c0.202-1.238-0.004-2.508-0.587-3.618c-0.208-0.578-0.47-1.134-0.782-1.662   c-0.41-0.501-0.869-0.959-1.369-1.369c-0.357-0.424-0.75-0.816-1.174-1.174C89.876,368.824,65.92,328.246,65.92,284.832   c-0.005-14.826,2.782-29.521,8.214-43.316v-0.685c9.793-23.125,25.386-43.332,45.272-58.667   c37.186-28.495,82.911-43.588,129.753-42.828c10.864-0.001,21.713,0.784,32.463,2.347h0.489   c30.749,4.19,60.141,15.325,85.947,32.561c29.594,18.91,51.257,47.98,60.918,81.744v0.685c0.233,0.614,0.527,1.203,0.88,1.76   c0.946,1.592,2.296,2.907,3.91,3.813l1.663,0.587h2.054h31.876c5.399,0,9.777,4.378,9.777,9.778V320.521z"></path><path clip-path="url(#SVGID_2_)" d="M252.288,169.843c-25.125-0.081-49.521,8.442-69.129,24.152   c-4.212,3.429-4.847,9.623-1.418,13.835c3.429,4.213,9.624,4.847,13.836,1.418c35.839-28.076,86.856-25.577,119.78,5.867   c3.915,3.726,10.11,3.573,13.836-0.342c3.727-3.915,3.573-10.11-0.343-13.836C308.307,181.069,280.868,169.925,252.288,169.843"></path><path clip-path="url(#SVGID_2_)" d="M386.931,245.817c7.506,0,13.591,6.085,13.591,13.592s-6.085,13.592-13.591,13.592   s-13.591-6.085-13.591-13.592S379.425,245.817,386.931,245.817"></path><path clip-path="url(#SVGID_2_)" d="M247.399,89.175c24.625,0,44.587-19.962,44.588-44.587C291.987,19.963,272.024,0,247.399,0   s-44.587,19.963-44.587,44.588S222.774,89.175,247.399,89.175 M247.399,19.556c13.825,0,25.032,11.207,25.032,25.032   c0,13.824-11.207,25.031-25.032,25.031c-13.825,0-25.032-11.207-25.032-25.031C222.368,30.763,233.575,19.556,247.399,19.556"></path></symbol>	<symbol id="ico9" viewBox="0 0 55 55"><path d="M2.33,25.504c6.548,11.224,15.941,20.617,27.166,27.165C32.109,54.194,35.09,55,38.116,55c4.568,0,8.866-1.778,12.098-5.011  C53.3,46.902,55,42.797,55,38.433V37.5c0-1.042-0.646-1.975-1.622-2.342l-13.333-5c-0.919-0.344-1.954-0.121-2.646,0.574  l-3.524,3.524c-5.078-3.647-9.483-8.054-13.131-13.131l3.525-3.525c0.693-0.693,0.917-1.728,0.573-2.646l-5-13.333  C19.475,0.646,18.542,0,17.5,0h-0.932c-4.365,0-8.47,1.7-11.557,4.787C1.779,8.019,0,12.315,0,16.884  C0,19.91,0.806,22.891,2.33,25.504 M8.546,8.323c1.956-1.956,4.499-3.109,7.231-3.296l3.816,10.177l-3.861,3.862  c-0.843,0.842-0.974,2.163-0.313,3.154c4.608,6.912,10.448,12.752,17.36,17.359c0.991,0.662,2.313,0.531,3.153-0.312l3.862-3.861  l10.177,3.816c-0.187,2.73-1.34,5.274-3.295,7.229C44.391,48.74,41.35,50,38.116,50c-2.143,0-4.251-0.569-6.102-1.648  C21.534,42.237,12.763,33.466,6.649,22.985C5.57,21.136,5,19.026,5,16.884C5,13.651,6.259,10.61,8.546,8.323"></path></symbol>	<symbol id="phone" viewBox="0 0 401.99798583984375 401.99798583984375"><path d="M401.129,311.475c-1.137-3.426-8.371-8.473-21.697-15.129c-3.61-2.098-8.754-4.949-15.41-8.566   c-6.662-3.617-12.709-6.95-18.13-9.996c-5.432-3.045-10.521-5.995-15.276-8.846c-0.76-0.571-3.139-2.234-7.136-5   c-4.001-2.758-7.375-4.805-10.14-6.14c-2.759-1.327-5.473-1.995-8.138-1.995c-3.806,0-8.56,2.714-14.268,8.135   c-5.708,5.428-10.944,11.324-15.7,17.706c-4.757,6.379-9.802,12.275-15.126,17.7c-5.332,5.427-9.713,8.138-13.135,8.138   c-1.718,0-3.86-0.479-6.427-1.424c-2.566-0.951-4.518-1.766-5.858-2.423c-1.328-0.671-3.607-1.999-6.845-4.004   c-3.244-1.999-5.048-3.094-5.428-3.285c-26.075-14.469-48.438-31.029-67.093-49.676c-18.649-18.658-35.211-41.019-49.676-67.097   c-0.19-0.381-1.287-2.19-3.284-5.424c-2-3.237-3.333-5.518-3.999-6.854c-0.666-1.331-1.475-3.283-2.425-5.852   s-1.427-4.709-1.427-6.424c0-3.424,2.713-7.804,8.138-13.134c5.424-5.327,11.326-10.373,17.7-15.128   c6.379-4.755,12.275-9.991,17.701-15.699c5.424-5.711,8.136-10.467,8.136-14.273c0-2.663-0.666-5.378-1.997-8.137   c-1.332-2.765-3.378-6.139-6.139-10.138c-2.762-3.997-4.427-6.374-4.999-7.139c-2.852-4.755-5.799-9.846-8.848-15.271   c-3.049-5.424-6.377-11.47-9.995-18.131c-3.615-6.658-6.468-11.799-8.564-15.415C98.986,9.233,93.943,1.997,90.516,0.859   C89.183,0.288,87.183,0,84.521,0c-5.142,0-11.85,0.95-20.129,2.856c-8.282,1.903-14.799,3.899-19.558,5.996   c-9.517,3.995-19.604,15.605-30.264,34.826C4.863,61.566,0.01,79.271,0.01,96.78c0,5.135,0.333,10.131,0.999,14.989   c0.666,4.853,1.856,10.326,3.571,16.418c1.712,6.09,3.093,10.614,4.137,13.56c1.045,2.948,2.996,8.229,5.852,15.845   c2.852,7.614,4.567,12.275,5.138,13.988c6.661,18.654,14.56,35.307,23.695,49.964c15.03,24.362,35.541,49.539,61.521,75.521   c25.981,25.98,51.153,46.49,75.517,61.526c14.655,9.134,31.314,17.032,49.965,23.698c1.714,0.568,6.375,2.279,13.986,5.141   c7.614,2.854,12.897,4.805,15.845,5.852c2.949,1.048,7.474,2.43,13.559,4.145c6.098,1.715,11.566,2.905,16.419,3.576   c4.856,0.657,9.853,0.996,14.989,0.996c17.508,0,35.214-4.856,53.105-14.562c19.219-10.656,30.826-20.745,34.823-30.269   c2.102-4.754,4.093-11.273,5.996-19.555c1.909-8.278,2.857-14.985,2.857-20.126C401.99,314.814,401.703,312.819,401.129,311.475z"></path></symbol>	<symbol id="review" viewBox="0 0 67 47"><polygon fill="none" stroke="#000000" stroke-width="2" stroke-miterlimit="10" points="46,23.5 36.25,28.51 26.5,33.51 26.5,23.5   26.5,13.49 36.25,18.49"></polygon><path fill="none" stroke="#000000" stroke-width="2" stroke-miterlimit="10" d="M12,1h43c6.075,0,11,4.925,11,11v23  c0,6.075-4.925,11-11,11H12C5.925,46,1,41.075,1,35V12C1,5.925,5.925,1,12,1z"></path><rect fill="none" width="67" height="47"></rect></symbol>	<symbol id="test" viewBox="0 0 63.994998931884766 64"><path d="M0,56V20c0-4.418,3.582-8,8-8h24.46l-7.87,8H8v36h36V39.42l8-7.87V56c0,4.418-3.582,8-8,8H8C3.582,64,0,60.418,0,56 M58,0  c-1.591,0.001-3.116,0.634-4.24,1.76L25.33,30.65c-0.875,0.89-1.535,1.967-1.93,3.15l-2.88,8.65c-0.114,0.438,0.149,0.886,0.587,1  c0.136,0.035,0.278,0.035,0.413,0L30.2,40.6c1.183-0.395,2.261-1.055,3.149-1.93L62.24,10.24c2.342-2.344,2.339-6.144-0.006-8.485  C61.111,0.632,59.588,0.001,58,0"></path></symbol>	<symbol id="wezom-logo" viewBox="0 0 57 21"><path d="M1.106,1.145c1.478-1.556,3.873-1.556,5.351,0l12.392,13.042 c1.477,1.555,1.477,4.076,0,5.632c-1.478,1.556-3.874,1.556-5.351,0L1.106,6.777C-0.371,5.222-0.371,2.7,1.106,1.145z"/><path d="M31.195,1.145c-1.478-1.556-3.874-1.556-5.351,0L13.453,14.188 c-1.478,1.555-1.478,4.076,0,5.632s3.873,1.556,5.351,0L31.195,6.777C32.672,5.222,32.672,2.7,31.195,1.145z"/><path d="M25.799,1.145c1.478-1.556,3.874-1.556,5.351,0l12.391,13.042 c1.478,1.555,1.478,4.076,0,5.632s-3.873,1.556-5.351,0L25.799,6.777C24.321,5.222,24.321,2.7,25.799,1.145z"/><path d="M55.887,1.145c-1.478-1.556-3.873-1.556-5.351,0L38.146,14.188 c-1.478,1.555-1.478,4.076,0,5.632s3.873,1.556,5.351,0L55.887,6.777C57.365,5.222,57.365,2.7,55.887,1.145z"/></symbol>	<symbol id="youtube" viewBox="0 0 65 45"><path d="M54.001,0H11C4.924,0,0,4.925,0,11v23c0,6.076,4.924,11.001,11,11.001h43c6.074,0,11-4.925,11-11.001V11  C65.001,4.925,60.075,0,54.001,0 M45.23,22.94l-19.5,10c-0.246,0.127-0.547,0.031-0.674-0.214C25.021,32.656,25,32.579,25,32.5v-20  c0.001-0.276,0.228-0.498,0.503-0.496c0.079,0.001,0.157,0.02,0.227,0.056l19.5,10c0.245,0.126,0.343,0.427,0.217,0.673  c-0.048,0.093-0.124,0.169-0.217,0.217V22.94z"></path><rect fill="none" width="65" height="45"></rect></symbol>	</svg>