<?xml version="1.0" standalone="no"?>
<!DOCTYPE svg PUBLIC "-//W3C//DTD SVG 20010904//EN"
 "http://www.w3.org/TR/2001/REC-SVG-20010904/DTD/svg10.dtd">
<svg version="1.0" xmlns="http://www.w3.org/2000/svg"
 width="952.000000pt" height="952.000000pt" viewBox="0 0 952.000000 952.000000"
 preserveAspectRatio="xMidYMid meet">
<metadata>
Created by potrace 1.11, written by Peter Selinger 2001-2013
</metadata>
<g transform="translate(0.000000,952.000000) scale(0.100000,-0.100000)"
fill="#000000" stroke="none">
<path d="M231 9498 c-89 -36 -152 -103 -185 -198 -14 -41 -15 -486 -13 -4550
2 -2478 7 -4520 11 -4537 5 -18 12 -33 17 -33 5 0 9 -6 9 -13 0 -8 9 -24 20
-37 11 -13 20 -27 20 -32 0 -4 6 -8 14 -8 8 0 16 -6 19 -14 3 -8 32 -27 64
-42 l58 -29 2385 0 c2111 0 2514 3 2611 20 13 2 53 7 89 10 109 10 135 13 135
15 0 2 34 8 80 14 22 3 51 8 65 11 14 3 39 8 57 11 27 3 64 12 178 38 6 2 28
7 50 11 56 13 55 12 58 15 1 1 11 4 22 5 11 2 57 14 103 28 45 14 82 22 82 20
0 -3 6 0 14 6 8 7 22 13 32 15 36 7 129 39 142 49 6 5 12 6 12 2 0 -4 7 -2 15
5 8 7 15 10 15 7 0 -3 12 0 27 8 15 8 30 12 35 9 4 -3 8 0 8 7 0 7 3 10 6 7 5
-5 56 14 139 52 11 5 45 19 75 31 139 57 559 279 568 301 2 4 8 8 13 8 12 0
86 47 117 74 12 11 22 16 22 12 0 -4 6 -2 13 4 6 6 44 33 82 61 39 27 78 56
88 64 9 8 21 15 25 15 4 0 21 12 37 28 17 15 48 40 70 57 22 16 45 34 51 40 7
5 32 26 55 47 129 108 187 161 319 296 220 222 420 462 542 648 18 27 36 51
40 52 5 2 8 8 8 12 0 5 20 37 44 72 24 35 47 73 50 86 4 12 12 22 17 22 5 0 9
4 9 10 0 5 15 33 33 62 18 29 39 67 47 83 8 17 21 38 29 48 8 9 11 17 7 17 -4
0 1 12 12 27 18 27 132 257 132 267 0 3 11 29 25 58 26 58 124 304 130 328 2
8 13 44 25 80 20 62 77 256 85 293 2 9 6 21 9 25 2 4 7 27 11 51 3 24 10 54
15 67 5 13 8 24 6 24 -2 0 2 23 9 52 8 28 12 55 9 59 -2 4 0 10 6 14 6 4 8 9
6 13 -2 4 2 39 10 77 7 39 13 121 14 183 l0 112 -155 0 c-85 0 -616 0 -1180 0
-564 0 -1092 0 -1174 0 l-148 0 -28 -97 c-15 -54 -30 -102 -33 -108 -4 -5 -7
-14 -8 -20 -7 -42 -114 -270 -183 -390 -32 -55 -104 -159 -113 -163 -5 -2 -8
-9 -8 -16 0 -7 -10 -22 -22 -33 -13 -11 -34 -36 -48 -54 -28 -37 -164 -183
-194 -208 -11 -9 -32 -27 -47 -41 -70 -65 -223 -180 -238 -180 -5 0 -11 -3
-13 -7 -8 -20 -298 -176 -325 -176 -7 0 -13 -4 -13 -8 0 -3 -10 -9 -22 -12
-13 -3 -65 -21 -117 -41 -52 -19 -97 -34 -100 -34 -3 1 -13 -1 -21 -5 -8 -3
-44 -12 -80 -21 -99 -22 -117 -26 -225 -41 -105 -15 -328 -19 -1218 -19 -939
-1 -999 0 -1008 17 -6 9 -15 17 -22 17 -7 0 -23 17 -37 37 l-25 37 -1 363 c-1
199 -4 369 -7 375 -3 10 -140 13 -643 12 -693 -1 -672 -3 -721 54 -13 14 -23
30 -24 36 0 6 -3 20 -5 31 -3 11 -5 71 -5 133 1 140 1 121 0 375 0 116 2 225
6 241 3 15 21 45 40 65 l34 36 661 3 c363 1 660 6 661 10 0 10 1 620 0 660
l-1 32 -642 0 c-592 0 -646 1 -678 18 -37 18 -84 78 -76 98 3 7 2 15 -1 18 -4
3 -6 170 -6 370 0 334 1 367 18 393 27 43 49 60 86 70 19 6 312 9 662 9 346
-1 631 3 634 7 3 5 5 173 6 373 0 201 4 367 8 370 5 3 9 12 9 21 0 23 59 70
100 80 41 10 2014 9 2110 -1 36 -4 76 -9 90 -11 14 -2 41 -7 60 -10 82 -13
146 -28 156 -36 6 -5 14 -6 17 -3 5 5 30 -1 147 -38 123 -38 384 -154 417
-185 7 -6 22 -15 33 -18 11 -3 20 -11 20 -16 0 -5 5 -9 11 -9 25 0 216 -142
328 -245 99 -90 224 -232 290 -328 20 -28 39 -53 44 -55 4 -2 7 -8 7 -12 0 -5
13 -28 29 -52 60 -90 180 -334 196 -398 2 -8 13 -38 24 -66 11 -29 17 -54 14
-58 -4 -3 -2 -6 4 -6 5 0 10 -6 10 -14 0 -7 6 -34 13 -60 l13 -46 291 0 c400
0 2293 0 2334 0 l34 0 -5 133 c-4 121 -8 157 -23 227 -3 14 -8 43 -10 64 -3
22 -10 48 -15 58 -5 10 -8 18 -5 18 2 0 0 17 -5 38 -5 20 -12 48 -15 62 -11
53 -37 149 -71 260 -19 63 -36 120 -38 125 -3 13 -6 22 -45 125 -17 47 -36
102 -42 123 -6 20 -14 37 -19 37 -5 0 -8 3 -7 8 2 9 -7 31 -38 100 -13 29 -24
54 -24 56 0 2 -29 64 -65 138 -72 149 -133 261 -194 358 -23 36 -47 76 -53 90
-7 14 -15 27 -18 30 -3 3 -32 45 -64 95 -33 49 -65 96 -73 103 -7 7 -13 17
-13 21 0 4 -8 16 -18 27 -10 10 -32 39 -49 64 -18 25 -42 57 -55 71 -13 15
-34 41 -48 59 -28 37 -41 51 -113 134 -118 134 -252 271 -359 367 -45 41 -89
81 -97 89 -15 14 -161 134 -186 153 -5 4 -23 19 -40 33 -16 14 -42 32 -57 42
-16 9 -28 20 -28 24 0 4 -6 8 -14 8 -7 0 -19 6 -25 13 -17 21 -176 127 -190
127 -7 0 -9 5 -6 10 3 6 2 10 -4 10 -9 0 -109 58 -121 70 -10 10 -389 214
-400 215 -3 1 -45 20 -93 43 -49 23 -93 42 -99 42 -5 0 -22 7 -36 15 -26 14
-76 35 -97 41 -5 1 -23 8 -40 15 -16 6 -34 13 -40 15 -5 1 -61 20 -122 42 -62
22 -113 38 -113 35 0 -3 -6 -1 -12 5 -7 5 -29 13 -48 18 -47 10 -50 11 -87 23
-18 5 -33 7 -33 4 0 -3 -6 -1 -12 4 -11 9 -95 30 -183 47 -11 2 -38 9 -60 14
-43 11 -88 20 -145 28 -39 5 -75 12 -75 14 0 3 -111 17 -205 26 -62 6 -95 11
-95 14 0 10 -510 13 -2550 16 l-2410 3 -54 -21z"/>
</g>
</svg>
